<?xml version="1.0" encoding="UTF-8"?><svg xmlns="http://www.w3.org/2000/svg" xmlns:xlink="http://www.w3.org/1999/xlink" fill-opacity="1" color-rendering="auto" color-interpolation="auto" text-rendering="auto" stroke="black" stroke-linecap="square" width="184" stroke-miterlimit="10" shape-rendering="auto" stroke-opacity="1" fill="black" stroke-dasharray="none" font-weight="normal" stroke-width="1" height="441" font-family="'Dialog'" font-style="normal" stroke-linejoin="miter" font-size="12px" stroke-dashoffset="0" image-rendering="auto">
  <!--Generated by ySVG 2.5-->
  <defs id="genericDefs"/>
  <g>
    <defs id="defs1">
      <linearGradient x1="119" gradientUnits="userSpaceOnUse" x2="199" y1="68" y2="108" id="linearGradient1" spreadMethod="reflect">
        <stop stop-opacity="1" stop-color="rgb(232,238,247)" offset="0%"/>
        <stop stop-opacity="1" stop-color="rgb(183,201,227)" offset="100%"/>
      </linearGradient>
      <linearGradient x1="119" gradientUnits="userSpaceOnUse" x2="199" y1="439" y2="479" id="linearGradient2" spreadMethod="reflect">
        <stop stop-opacity="1" stop-color="rgb(232,238,247)" offset="0%"/>
        <stop stop-opacity="1" stop-color="rgb(183,201,227)" offset="100%"/>
      </linearGradient>
      <linearGradient x1="93" gradientUnits="userSpaceOnUse" x2="225" y1="150" y2="199" id="linearGradient3" spreadMethod="reflect">
        <stop stop-opacity="1" stop-color="rgb(232,238,247)" offset="0%"/>
        <stop stop-opacity="1" stop-color="rgb(183,201,227)" offset="100%"/>
      </linearGradient>
      <linearGradient x1="89.5" gradientUnits="userSpaceOnUse" x2="228.5" y1="234" y2="274" id="linearGradient4" spreadMethod="reflect">
        <stop stop-opacity="1" stop-color="rgb(232,238,247)" offset="0%"/>
        <stop stop-opacity="1" stop-color="rgb(183,201,227)" offset="100%"/>
      </linearGradient>
      <linearGradient x1="82.5" gradientUnits="userSpaceOnUse" x2="235.5" y1="304" y2="344" id="linearGradient5" spreadMethod="reflect">
        <stop stop-opacity="1" stop-color="rgb(232,238,247)" offset="0%"/>
        <stop stop-opacity="1" stop-color="rgb(183,201,227)" offset="100%"/>
      </linearGradient>
      <linearGradient x1="93" gradientUnits="userSpaceOnUse" x2="225" y1="374" y2="414" id="linearGradient6" spreadMethod="reflect">
        <stop stop-opacity="1" stop-color="rgb(232,238,247)" offset="0%"/>
        <stop stop-opacity="1" stop-color="rgb(183,201,227)" offset="100%"/>
      </linearGradient>
      <clipPath clipPathUnits="userSpaceOnUse" id="clipPath1">
        <path d="M0 0 L184 0 L184 441 L0 441 L0 0 Z"/>
      </clipPath>
      <clipPath clipPathUnits="userSpaceOnUse" id="clipPath2">
        <path d="M67 53 L251 53 L251 494 L67 494 L67 53 Z"/>
      </clipPath>
    </defs>
    <g fill="url(#linearGradient1)" text-rendering="geometricPrecision" shape-rendering="geometricPrecision" transform="matrix(1,0,0,1,-67,-53)" stroke="url(#linearGradient1)">
      <ellipse rx="40" ry="20" clip-path="url(#clipPath2)" cx="159" cy="88" stroke="none"/>
    </g>
    <g text-rendering="geometricPrecision" stroke-miterlimit="1.45" shape-rendering="geometricPrecision" transform="matrix(1,0,0,1,-67,-53)" stroke-linecap="butt">
      <ellipse rx="40" fill="none" ry="20" clip-path="url(#clipPath2)" cx="159" cy="88"/>
      <text x="143.25" xml:space="preserve" y="92.7725" clip-path="url(#clipPath2)" font-family="sans-serif" stroke="none">Mulai</text>
    </g>
    <g fill="url(#linearGradient2)" text-rendering="geometricPrecision" shape-rendering="geometricPrecision" transform="matrix(1,0,0,1,-67,-53)" stroke="url(#linearGradient2)">
      <ellipse rx="40" ry="20" clip-path="url(#clipPath2)" cx="159" cy="459" stroke="none"/>
    </g>
    <g text-rendering="geometricPrecision" stroke-miterlimit="1.45" shape-rendering="geometricPrecision" transform="matrix(1,0,0,1,-67,-53)" stroke-linecap="butt">
      <ellipse rx="40" fill="none" ry="20" clip-path="url(#clipPath2)" cx="159" cy="459"/>
      <text x="137.7275" xml:space="preserve" y="463.7725" clip-path="url(#clipPath2)" font-family="sans-serif" stroke="none">Selesai</text>
    </g>
    <g fill="url(#linearGradient3)" text-rendering="geometricPrecision" shape-rendering="geometricPrecision" transform="matrix(1,0,0,1,-67,-53)" stroke="url(#linearGradient3)">
      <path d="M105.25 150 L212.75 150 L225 174.5 L212.75 199 L105.25 199 L93 174.5 Z" stroke="none" clip-path="url(#clipPath2)"/>
    </g>
    <g text-rendering="geometricPrecision" stroke-miterlimit="1.45" shape-rendering="geometricPrecision" transform="matrix(1,0,0,1,-67,-53)" stroke-linecap="butt">
      <path fill="none" d="M105.25 150 L212.75 150 L225 174.5 L212.75 199 L105.25 199 L93 174.5 Z" clip-path="url(#clipPath2)"/>
      <text x="115.8809" xml:space="preserve" y="171.9805" clip-path="url(#clipPath2)" font-family="sans-serif" stroke="none">int alas, tinggi</text>
      <text x="131.3525" xml:space="preserve" y="186.5645" clip-path="url(#clipPath2)" font-family="sans-serif" stroke="none">float luas</text>
    </g>
    <g fill="url(#linearGradient4)" text-rendering="geometricPrecision" shape-rendering="geometricPrecision" transform="matrix(1,0,0,1,-67,-53)" stroke="url(#linearGradient4)">
      <path d="M99.7 234 L228.5 234 L218.3 274 L89.5 274 Z" stroke="none" clip-path="url(#clipPath2)"/>
    </g>
    <g text-rendering="geometricPrecision" stroke-miterlimit="1.45" shape-rendering="geometricPrecision" transform="matrix(1,0,0,1,-67,-53)" stroke-linecap="butt">
      <path fill="none" d="M99.7 234 L228.5 234 L218.3 274 L89.5 274 Z" clip-path="url(#clipPath2)"/>
      <text x="108.3457" xml:space="preserve" y="258.7725" clip-path="url(#clipPath2)" font-family="sans-serif" stroke="none">input alas, tinggi</text>
    </g>
    <g fill="url(#linearGradient5)" text-rendering="geometricPrecision" shape-rendering="geometricPrecision" transform="matrix(1,0,0,1,-67,-53)" stroke="url(#linearGradient5)">
      <path d="M82.5 304 L235.5 304 L235.5 344 L82.5 344 Z" stroke="none" clip-path="url(#clipPath2)"/>
    </g>
    <g text-rendering="geometricPrecision" stroke-miterlimit="1.45" shape-rendering="geometricPrecision" transform="matrix(1,0,0,1,-67,-53)" stroke-linecap="butt">
      <path fill="none" d="M82.5 304 L235.5 304 L235.5 344 L82.5 344 Z" clip-path="url(#clipPath2)"/>
      <text x="89.9971" xml:space="preserve" y="328.7725" clip-path="url(#clipPath2)" font-family="sans-serif" stroke="none">luas = alas * tinggi / 2</text>
    </g>
    <g fill="url(#linearGradient6)" text-rendering="geometricPrecision" shape-rendering="geometricPrecision" transform="matrix(1,0,0,1,-67,-53)" stroke="url(#linearGradient6)">
      <path d="M103.2 374 L225 374 L214.8 414 L93 414 Z" stroke="none" clip-path="url(#clipPath2)"/>
    </g>
    <g text-rendering="geometricPrecision" stroke-miterlimit="1.45" shape-rendering="geometricPrecision" transform="matrix(1,0,0,1,-67,-53)" stroke-linecap="butt">
      <path fill="none" d="M103.2 374 L225 374 L214.8 414 L93 414 Z" clip-path="url(#clipPath2)"/>
      <text x="113.5986" xml:space="preserve" y="398.7725" clip-path="url(#clipPath2)" font-family="sans-serif" stroke="none">Tampilkan luas</text>
    </g>
    <g text-rendering="geometricPrecision" stroke-miterlimit="1.45" shape-rendering="geometricPrecision" transform="matrix(1,0,0,1,-67,-53)" stroke-linecap="butt">
      <path fill="none" d="M159 107.9778 L159 141.9764" clip-path="url(#clipPath2)"/>
    </g>
    <g text-rendering="geometricPrecision" stroke-miterlimit="1.45" shape-rendering="geometricPrecision" transform="matrix(1,0,0,1,-67,-53)" stroke-linecap="butt">
      <path d="M159 149.9764 L164 137.9764 L159 140.9764 L154 137.9764 Z" stroke="none" clip-path="url(#clipPath2)"/>
      <path fill="none" d="M159 198.9944 L159 225.9906" clip-path="url(#clipPath2)"/>
      <path d="M159 233.9906 L164 221.9906 L159 224.9906 L154 221.9906 Z" clip-path="url(#clipPath2)" stroke="none"/>
      <path fill="none" d="M159 273.9951 L159 296.0273" clip-path="url(#clipPath2)"/>
      <path d="M159 304.0273 L164 292.0273 L159 295.0273 L154 292.0273 Z" clip-path="url(#clipPath2)" stroke="none"/>
      <path fill="none" d="M159 343.9951 L159 366.0273" clip-path="url(#clipPath2)"/>
      <path d="M159 374.0273 L164 362.0273 L159 365.0273 L154 362.0273 Z" clip-path="url(#clipPath2)" stroke="none"/>
      <path fill="none" d="M159 414.0269 L159 431.0168" clip-path="url(#clipPath2)"/>
      <path d="M159 439.0168 L164 427.0168 L159 430.0168 L154 427.0168 Z" clip-path="url(#clipPath2)" stroke="none"/>
    </g>
  </g>
</svg>
