<?xml version="1.0" encoding="UTF-8"?><svg xmlns="http://www.w3.org/2000/svg" xmlns:xlink="http://www.w3.org/1999/xlink" fill-opacity="1" color-rendering="auto" color-interpolation="auto" text-rendering="auto" stroke="black" stroke-linecap="square" width="258" stroke-miterlimit="10" shape-rendering="auto" stroke-opacity="1" fill="black" stroke-dasharray="none" font-weight="normal" stroke-width="1" height="449" font-family="'Dialog'" font-style="normal" stroke-linejoin="miter" font-size="12px" stroke-dashoffset="0" image-rendering="auto">
  <!--Generated by ySVG 2.5-->
  <defs id="genericDefs"/>
  <g>
    <defs id="defs1">
      <linearGradient x1="116" gradientUnits="userSpaceOnUse" x2="196" y1="70" y2="110" id="linearGradient1" spreadMethod="reflect">
        <stop stop-opacity="1" stop-color="rgb(232,238,247)" offset="0%"/>
        <stop stop-opacity="1" stop-color="rgb(183,201,227)" offset="100%"/>
      </linearGradient>
      <linearGradient x1="116" gradientUnits="userSpaceOnUse" x2="196" y1="449" y2="489" id="linearGradient2" spreadMethod="reflect">
        <stop stop-opacity="1" stop-color="rgb(232,238,247)" offset="0%"/>
        <stop stop-opacity="1" stop-color="rgb(183,201,227)" offset="100%"/>
      </linearGradient>
      <linearGradient x1="69.5" gradientUnits="userSpaceOnUse" x2="242.5" y1="154" y2="201" id="linearGradient3" spreadMethod="reflect">
        <stop stop-opacity="1" stop-color="rgb(232,238,247)" offset="0%"/>
        <stop stop-opacity="1" stop-color="rgb(183,201,227)" offset="100%"/>
      </linearGradient>
      <linearGradient x1="78.5" gradientUnits="userSpaceOnUse" x2="233.5" y1="239" y2="279" id="linearGradient4" spreadMethod="reflect">
        <stop stop-opacity="1" stop-color="rgb(232,238,247)" offset="0%"/>
        <stop stop-opacity="1" stop-color="rgb(183,201,227)" offset="100%"/>
      </linearGradient>
      <linearGradient x1="84" gradientUnits="userSpaceOnUse" x2="228" y1="379" y2="419" id="linearGradient5" spreadMethod="reflect">
        <stop stop-opacity="1" stop-color="rgb(232,238,247)" offset="0%"/>
        <stop stop-opacity="1" stop-color="rgb(183,201,227)" offset="100%"/>
      </linearGradient>
      <linearGradient x1="42.5" gradientUnits="userSpaceOnUse" x2="269.5" y1="309" y2="349" id="linearGradient6" spreadMethod="reflect">
        <stop stop-opacity="1" stop-color="rgb(232,238,247)" offset="0%"/>
        <stop stop-opacity="1" stop-color="rgb(183,201,227)" offset="100%"/>
      </linearGradient>
      <clipPath clipPathUnits="userSpaceOnUse" id="clipPath1">
        <path d="M0 0 L258 0 L258 449 L0 449 L0 0 Z"/>
      </clipPath>
      <clipPath clipPathUnits="userSpaceOnUse" id="clipPath2">
        <path d="M27 55 L285 55 L285 504 L27 504 L27 55 Z"/>
      </clipPath>
    </defs>
    <g fill="url(#linearGradient1)" text-rendering="geometricPrecision" shape-rendering="geometricPrecision" transform="matrix(1,0,0,1,-27,-55)" stroke="url(#linearGradient1)">
      <ellipse rx="40" ry="20" clip-path="url(#clipPath2)" cx="156" cy="90" stroke="none"/>
    </g>
    <g text-rendering="geometricPrecision" stroke-miterlimit="1.45" shape-rendering="geometricPrecision" transform="matrix(1,0,0,1,-27,-55)" stroke-linecap="butt">
      <ellipse rx="40" fill="none" ry="20" clip-path="url(#clipPath2)" cx="156" cy="90"/>
      <text x="140.25" xml:space="preserve" y="94.7725" clip-path="url(#clipPath2)" font-family="sans-serif" stroke="none">Mulai</text>
    </g>
    <g fill="url(#linearGradient2)" text-rendering="geometricPrecision" shape-rendering="geometricPrecision" transform="matrix(1,0,0,1,-27,-55)" stroke="url(#linearGradient2)">
      <ellipse rx="40" ry="20" clip-path="url(#clipPath2)" cx="156" cy="469" stroke="none"/>
    </g>
    <g text-rendering="geometricPrecision" stroke-miterlimit="1.45" shape-rendering="geometricPrecision" transform="matrix(1,0,0,1,-27,-55)" stroke-linecap="butt">
      <ellipse rx="40" fill="none" ry="20" clip-path="url(#clipPath2)" cx="156" cy="469"/>
      <text x="134.7275" xml:space="preserve" y="473.7725" clip-path="url(#clipPath2)" font-family="sans-serif" stroke="none">Selesai</text>
    </g>
    <g fill="url(#linearGradient3)" text-rendering="geometricPrecision" shape-rendering="geometricPrecision" transform="matrix(1,0,0,1,-27,-55)" stroke="url(#linearGradient3)">
      <path d="M81.25 154 L230.75 154 L242.5 177.5 L230.75 201 L81.25 201 L69.5 177.5 Z" stroke="none" clip-path="url(#clipPath2)"/>
    </g>
    <g text-rendering="geometricPrecision" stroke-miterlimit="1.45" shape-rendering="geometricPrecision" transform="matrix(1,0,0,1,-27,-55)" stroke-linecap="butt">
      <path fill="none" d="M81.25 154 L230.75 154 L242.5 177.5 L230.75 201 L81.25 201 L69.5 177.5 Z" clip-path="url(#clipPath2)"/>
      <text x="111.1699" xml:space="preserve" y="174.9805" clip-path="url(#clipPath2)" font-family="sans-serif" stroke="none">int jari2, tinggi</text>
      <text x="82.251" xml:space="preserve" y="189.5645" clip-path="url(#clipPath2)" font-family="sans-serif" stroke="none">float volume, phi = 3.14</text>
    </g>
    <g fill="url(#linearGradient4)" text-rendering="geometricPrecision" shape-rendering="geometricPrecision" transform="matrix(1,0,0,1,-27,-55)" stroke="url(#linearGradient4)">
      <path d="M88.7 239 L233.5 239 L223.3 279 L78.5 279 Z" stroke="none" clip-path="url(#clipPath2)"/>
    </g>
    <g text-rendering="geometricPrecision" stroke-miterlimit="1.45" shape-rendering="geometricPrecision" transform="matrix(1,0,0,1,-27,-55)" stroke-linecap="butt">
      <path fill="none" d="M88.7 239 L233.5 239 L223.3 279 L78.5 279 Z" clip-path="url(#clipPath2)"/>
      <text x="103.6348" xml:space="preserve" y="263.7725" clip-path="url(#clipPath2)" font-family="sans-serif" stroke="none">input jari2, tinggi</text>
    </g>
    <g fill="url(#linearGradient5)" text-rendering="geometricPrecision" shape-rendering="geometricPrecision" transform="matrix(1,0,0,1,-27,-55)" stroke="url(#linearGradient5)">
      <path d="M94.2 379 L228 379 L217.8 419 L84 419 Z" stroke="none" clip-path="url(#clipPath2)"/>
    </g>
    <g text-rendering="geometricPrecision" stroke-miterlimit="1.45" shape-rendering="geometricPrecision" transform="matrix(1,0,0,1,-27,-55)" stroke-linecap="butt">
      <path fill="none" d="M94.2 379 L228 379 L217.8 419 L84 419 Z" clip-path="url(#clipPath2)"/>
      <text x="100.7256" xml:space="preserve" y="403.7725" clip-path="url(#clipPath2)" font-family="sans-serif" stroke="none">Tampilkan volume</text>
    </g>
    <g fill="url(#linearGradient6)" text-rendering="geometricPrecision" shape-rendering="geometricPrecision" transform="matrix(1,0,0,1,-27,-55)" stroke="url(#linearGradient6)">
      <path d="M42.5 309 L269.5 309 L269.5 349 L42.5 349 Z" stroke="none" clip-path="url(#clipPath2)"/>
    </g>
    <g text-rendering="geometricPrecision" stroke-miterlimit="1.45" shape-rendering="geometricPrecision" transform="matrix(1,0,0,1,-27,-55)" stroke-linecap="butt">
      <path fill="none" d="M42.5 309 L269.5 309 L269.5 349 L42.5 349 Z" clip-path="url(#clipPath2)"/>
      <text x="47.2324" xml:space="preserve" y="333.7725" clip-path="url(#clipPath2)" font-family="sans-serif" stroke="none">volume = phi * jari2 * jari2 * tinggi</text>
    </g>
    <g text-rendering="geometricPrecision" stroke-miterlimit="1.45" shape-rendering="geometricPrecision" transform="matrix(1,0,0,1,-27,-55)" stroke-linecap="butt">
      <path fill="none" d="M156 110.0378 L156 146.0134" clip-path="url(#clipPath2)"/>
    </g>
    <g text-rendering="geometricPrecision" stroke-miterlimit="1.45" shape-rendering="geometricPrecision" transform="matrix(1,0,0,1,-27,-55)" stroke-linecap="butt">
      <path d="M156 154.0134 L161 142.0134 L156 145.0134 L151 142.0134 Z" stroke="none" clip-path="url(#clipPath2)"/>
      <path fill="none" d="M156 201.0188 L156 230.984" clip-path="url(#clipPath2)"/>
      <path d="M156 238.984 L161 226.984 L156 229.984 L151 226.984 Z" clip-path="url(#clipPath2)" stroke="none"/>
      <path fill="none" d="M156 418.9951 L156 441.0273" clip-path="url(#clipPath2)"/>
      <path d="M156 449.0273 L161 437.0273 L156 440.0273 L151 437.0273 Z" clip-path="url(#clipPath2)" stroke="none"/>
      <path fill="none" d="M156 278.9951 L156 301.0273" clip-path="url(#clipPath2)"/>
      <path d="M156 309.0273 L161 297.0273 L156 300.0273 L151 297.0273 Z" clip-path="url(#clipPath2)" stroke="none"/>
      <path fill="none" d="M156 348.9951 L156 371.0273" clip-path="url(#clipPath2)"/>
      <path d="M156 379.0273 L161 367.0273 L156 370.0273 L151 367.0273 Z" clip-path="url(#clipPath2)" stroke="none"/>
    </g>
  </g>
</svg>
